<svg xmlns="http://www.w3.org/2000/svg" xmlns:xlink="http://www.w3.org/1999/xlink" width="794.7" height="564.762" viewBox="0 0 596.026 423.572" color-interpolation-filters="sRGB" fill="none" fill-rule="evenodd" font-size="12" overflow="visible" stroke-linecap="square" stroke-miterlimit="3"><style>.prefix__st1,.prefix__st2{fill:#fff;stroke:#30518f;stroke-width:.75}.prefix__st2{fill:#3c63ac}.prefix__st5{fill:#feffff;font-family:Calibri;font-size:1.00001em}.prefix__st6,.prefix__st7{stroke:#4672c4;stroke-linecap:round;stroke-linejoin:round;stroke-width:1}.prefix__st7{marker-end:url(#prefix__mrkr12-78)}</style><defs id="prefix__Patterns_And_Gradients"><linearGradient id="prefix__grad0-11" x1="0" y1="0" x2="1" y2="0" gradientTransform="rotate(90 .5 .5)"><stop offset=".01" stop-color="#f2f2f2"/><stop offset=".5" stop-color="#e2e2e2"/><stop offset="1" stop-color="#f2f2f2"/></linearGradient></defs><defs id="prefix__Markers"><marker id="prefix__mrkr12-78" orient="auto" markerUnits="strokeWidth" overflow="visible" fill="#4672c4" fill-opacity="1" stroke="#4672c4" stroke-opacity="1" stroke-width=".284"><use xlink:href="#prefix__lend12" transform="scale(-3.52)"/></marker><path d="M3 1L0 0l3-1" stroke-linecap="round" stroke-linejoin="round" id="prefix__lend12"/></defs><g id="prefix__group41-1" transform="translate(.75 -2.835)"><g id="prefix__group42-2"><path d="M0 423.57h592.44V3.58H0v419.99z" class="prefix__st1" id="prefix__shape42-5"/></g><g id="prefix__group44-7" transform="translate(0 -394.475)"><g id="prefix__shape44-12"><path d="M0 423.57h592.44v-25.51H0v25.51z" class="prefix__st2"/><text x="254.02" y="414.42" fill="#feffff" font-family="KoPubWorld돋움체 Medium" font-size="1em" font-stretch="semi-expanded">플레이어 캐릭터</text></g></g></g><g id="prefix__group1065-15" transform="translate(261.254 -51.024)"><g id="prefix__group1066-16" transform="translate(0 -51.024)"><g id="prefix__shape1066-20"><path d="M0 423.57h63.78v-21.26H0v21.26z" class="prefix__st2"/><text x="6" y="415.94" fill="#feffff" font-family="KoPubWorld돋움체 Medium" font-size=".833em" font-stretch="semi-expanded">애니메이터</text></g></g><g id="prefix__group1068-23"><path d="M0 423.57h265.04v-51.02H0v51.02z" class="prefix__st1" id="prefix__shape1068-26"/></g></g><g id="prefix__shape59-28" transform="translate(237.868 -327.402)"><path class="prefix__st2" d="M0 389.556h113.386v34.016H0z"/><text x="31.92" y="410.16" class="prefix__st5">Behaviour</text></g><g id="prefix__shape1038-31" transform="translate(237.868 -216.85)"><path class="prefix__st2" d="M0 389.556h113.386v34.016H0z"/><text x="27.1" y="410.16" class="prefix__st5">RootMotion</text></g><g id="prefix__shape1039-34" transform="translate(63.254 -216.85)"><path class="prefix__st2" d="M0 389.556h113.386v34.016H0z"/><text x="41.54" y="410.16" class="prefix__st5">Status</text></g><g id="prefix__shape1040-37" transform="translate(63.254 -161.575)"><path class="prefix__st2" d="M0 389.556h113.386v34.016H0z"/><text x="23.34" y="410.16" class="prefix__st5">ConstantData</text></g><g id="prefix__shape1041-40" transform="translate(412.482 -327.402)"><path class="prefix__st2" d="M0 389.556h113.386v34.016H0z"/><text x="17.28" y="410.16" class="prefix__st5">DamageHandler</text></g><g id="prefix__shape1042-43" transform="translate(63.254 -272.126)"><path class="prefix__st2" d="M0 389.556h113.386v34.016H0z"/><text x="19.53" y="410.16" class="prefix__st5">DamageTrigger</text></g><g id="prefix__shape60-46" transform="translate(412.482 -272.126)"><path class="prefix__st2" d="M0 389.556h113.386v34.016H0z"/><text x="34.22" y="410.16" class="prefix__st5">StateFlag</text></g><g id="prefix__shape61-49" transform="translate(63.254 -327.402)"><path class="prefix__st2" d="M0 389.556h113.386v34.016H0z"/><text x="43.71" y="410.16" class="prefix__st5">Input</text></g><g id="prefix__shape1036-52" transform="translate(412.482 -216.85)"><path class="prefix__st2" d="M0 389.556h113.386v34.016H0z"/><text x="18.25" y="410.16" class="prefix__st5">StateParameter</text></g><g id="prefix__shape1037-55" transform="translate(237.868 -161.575)"><path class="prefix__st2" d="M0 389.556h113.386v34.016H0z"/><text x="29.99" y="410.16" class="prefix__st5">Equipment</text></g><g id="prefix__shape1043-58" transform="translate(404.404 -59.528)"><path class="prefix__st2" d="M0 389.556h113.386v34.016H0z"/><text x="19.29" y="410.16" class="prefix__st5">StateBehaviour</text></g><g id="prefix__shape1044-61" transform="translate(269.758 -59.528)"><path class="prefix__st2" d="M0 389.556h113.386v34.016H0z"/><text x="19.39" y="410.16" class="prefix__st5">StateFlagSetter</text></g><g id="prefix__group1050-64" transform="translate(176.64 -289.134)"><path d="M0 423.57h25.8V368.3" class="prefix__st6" id="prefix__shape1050-65"/></g><g id="prefix__group1060-68" transform="translate(176.64 -178.583)"><path d="M0 423.57h25.8V368.3" class="prefix__st6" id="prefix__shape1060-69"/></g><g id="prefix__group1090-72" transform="translate(326.451 -59.528)"><path d="M0 423.57v25.51h236.39V193.97h-36.97" class="prefix__st7" id="prefix__shape1090-73"/></g><g id="prefix__group1095-79" transform="translate(176.64 -337.323)"><path d="M0 416.48h61.23" class="prefix__st7" id="prefix__shape1095-80"/></g><g id="prefix__group1100-85" transform="translate(202.435 -289.134)"><path d="M0 423.57v55.28h-25.8" class="prefix__st7" id="prefix__shape1100-86"/></g><g id="prefix__group1105-91" transform="translate(382.435 -344.409)"><path d="M0 423.57v55.28h30.05" class="prefix__st7" id="prefix__shape1105-92"/></g><g id="prefix__group1110-97" transform="translate(382.435 -289.134)"><path d="M0 423.57v55.28h30.05" class="prefix__st7" id="prefix__shape1110-98"/></g><g id="prefix__group1115-103" transform="translate(371.096 -102.047)"><path d="M0 423.57v-77.66h-19.84" class="prefix__st7" id="prefix__shape1115-104"/></g><g id="prefix__group1120-109" transform="translate(371.096 -178.583)"><path d="M0 423.57V368.3h-19.84" class="prefix__st7" id="prefix__shape1120-110"/></g><g id="prefix__group1125-115" transform="translate(351.254 -337.323)"><path d="M0 416.48h61.23" class="prefix__st7" id="prefix__shape1125-116"/></g></svg>