<svg xmlns="http://www.w3.org/2000/svg" width="964.781" height="380.843" viewBox="0 0 723.585 285.632" color-interpolation-filters="sRGB" fill="none" fill-rule="evenodd" font-size="12" overflow="visible" stroke-linecap="square" stroke-miterlimit="3"><style>.prefix__st1,.prefix__st2{fill:#fff;stroke:#30518f;stroke-width:.75}.prefix__st2{fill:#3c63ac}.prefix__st3{fill:#feffff;font-family:KoPubWorld돋움체 Medium;font-size:1.00001em;font-stretch:semi-expanded}.prefix__st4,.prefix__st5{fill:#fff;stroke:#c7c8c8;stroke-width:.25}.prefix__st5{fill:#4672c4}.prefix__st6{fill:#feffff;font-family:KoPubWorld돋움체 Medium;font-size:1.00001em}</style><defs id="prefix__Patterns_And_Gradients"><linearGradient id="prefix__grad0-11" x1="0" y1="0" x2="1" y2="0" gradientTransform="rotate(90 .5 .5)"><stop offset=".01" stop-color="#f2f2f2"/><stop offset=".5" stop-color="#e2e2e2"/><stop offset="1" stop-color="#f2f2f2"/></linearGradient><linearGradient id="prefix__grad0-51" x1="0" y1="0" x2="1" y2="0" gradientTransform="rotate(90 .5 .5)"><stop offset=".01" stop-color="#eee"/><stop offset=".5" stop-color="#d7d7d7"/><stop offset="1" stop-color="#eee"/></linearGradient></defs><g id="prefix__group1183-1" transform="translate(287.049 -2.835)"><g id="prefix__group1184-2"><path d="M0 285.63h291.97V3.58H0v282.05z" class="prefix__st1" id="prefix__shape1184-5"/></g><g id="prefix__group1186-7" transform="translate(0 -256.535)"><g id="prefix__shape1186-12"><path d="M0 285.63h291.97v-25.51H0v25.51z" class="prefix__st2"/><text x="121.05" y="276.48" class="prefix__st3">동작 제어</text></g></g></g><g id="prefix__group1140-15" transform="translate(148.152 -9.921)"><g id="prefix__group1141-16"><path d="M0 285.63h130.39V43.27H0v242.36z" class="prefix__st1" id="prefix__shape1141-19"/></g><g id="prefix__group1143-21" transform="translate(0 -216.85)"><g id="prefix__shape1143-25"><path d="M0 285.63h130.39v-25.51H0v25.51z" class="prefix__st2"/><text x="47.93" y="276.48" class="prefix__st3">입출력</text></g></g></g><g id="prefix__group1147-28" transform="translate(.75 -9.921)"><g id="prefix__group1148-29"><path d="M0 285.63h130.39V43.27H0v242.36z" class="prefix__st1" id="prefix__shape1148-32"/></g><g id="prefix__group1150-34" transform="translate(0 -216.85)"><g id="prefix__shape1150-38"><path d="M0 285.63h130.39v-25.51H0v25.51z" class="prefix__st2"/><text x="47.93" y="276.48" class="prefix__st3">데이터</text></g></g></g><g id="prefix__group1154-41" transform="translate(295.553 -9.921)"><g id="prefix__group1155-42"><path d="M0 285.63h130.39V43.27H0v242.36z" class="prefix__st4" id="prefix__shape1155-45"/></g><g id="prefix__group1157-47" transform="translate(0 -216.85)"><g id="prefix__shape1157-52"><path d="M0 285.63h130.39v-25.51H0v25.51z" class="prefix__st5"/><text x="28.75" y="276.48" class="prefix__st3">오브젝트 제어</text></g></g></g><g id="prefix__group1161-55" transform="translate(442.955 -9.921)"><g id="prefix__group1162-56"><path d="M0 285.63h130.39V43.27H0v242.36z" class="prefix__st4" id="prefix__shape1162-59"/></g><g id="prefix__group1164-61" transform="translate(0 -216.85)"><g id="prefix__shape1164-65"><path d="M0 285.63h130.39v-25.51H0v25.51z" class="prefix__st5"/><text x="23" y="276.48" class="prefix__st3">애니메이션 제어</text></g></g></g><g id="prefix__group1166-68" transform="translate(590.356 -9.921)"><g id="prefix__group1167-69"><path d="M0 285.63h130.39V43.27H0v242.36z" class="prefix__st1" id="prefix__shape1167-72"/></g><g id="prefix__group1169-74" transform="translate(0 -216.85)"><g id="prefix__shape1169-78"><path d="M0 285.63h130.39v-25.51H0v25.51z" class="prefix__st2"/><text x="34.51" y="276.48" class="prefix__st3">비주얼 제어</text></g></g></g><g id="prefix__shape1171-81" transform="translate(156.656 -184.252)"><path class="prefix__st2" d="M0 251.616h113.386v34.016H0z"/><text x="42.83" y="272.22" class="prefix__st6">Input</text></g><g id="prefix__shape1172-84" transform="translate(9.254 -184.252)"><path class="prefix__st2" d="M0 251.616h113.386v34.016H0z"/><text x="39.55" y="272.22" class="prefix__st6">Status</text></g><g id="prefix__shape1173-87" transform="translate(9.254 -128.976)"><path class="prefix__st2" d="M0 251.616h113.386v34.016H0z"/><text x="20.11" y="272.22" class="prefix__st6">ConstantData</text></g><g id="prefix__shape1174-90" transform="translate(304.057 -184.252)"><path class="prefix__st2" d="M0 251.616h113.386v34.016H0z"/><text x="29.8" y="272.22" class="prefix__st6">Behaviour</text></g><g id="prefix__shape1175-93" transform="translate(451.459 -73.7)"><path class="prefix__st2" d="M0 251.616h113.386v34.016H0z"/><text x="25.44" y="272.22" class="prefix__st6">RootMotion</text></g><g id="prefix__shape1176-96" transform="translate(156.656 -128.976)"><path class="prefix__st2" d="M0 251.616h113.386v34.016H0z"/><text x="15.32" y="272.22" class="prefix__st6">DamageTrigger</text></g><g id="prefix__shape1177-99" transform="translate(156.656 -73.7)"><path class="prefix__st2" d="M0 251.616h113.386v34.016H0z"/><text x="13.35" y="272.22" class="prefix__st6">DamageHandler</text></g><g id="prefix__shape1178-102" transform="translate(9.254 -73.7)"><path class="prefix__st2" d="M0 251.616h113.386v34.016H0z"/><text x="31.46" y="272.22" class="prefix__st6">StateFlag</text></g><g id="prefix__shape1179-105" transform="translate(9.254 -18.425)"><path class="prefix__st2" d="M0 251.616h113.386v34.016H0z"/><text x="14.63" y="272.22" class="prefix__st6">StateParameter</text></g><g id="prefix__shape1180-108" transform="translate(451.459 -184.252)"><path class="prefix__st2" d="M0 251.616h113.386v34.016H0z"/><text x="15.69" y="272.22" class="prefix__st6">StateBehaviour</text></g><g id="prefix__shape1181-111" transform="translate(451.459 -128.976)"><path class="prefix__st2" d="M0 251.616h113.386v34.016H0z"/><text x="14.97" y="272.22" class="prefix__st6">StateFlagSetter</text></g><g id="prefix__shape1182-114" transform="translate(598.86 -184.252)"><path class="prefix__st2" d="M0 251.616h113.386v34.016H0z"/><text x="27.39" y="272.22" class="prefix__st6">Equipment</text></g></svg>